{
  "asset": {
    "version": "2.0",
    "generator": "launchview-model-generator"
  },
  "scenes": [
    {
      "nodes": [
        0
      ]
    }
  ],
  "scene": 0,
  "nodes": [
    {
      "mesh": 0
    }
  ],
  "meshes": [
    {
      "primitives": [
        {
          "attributes": {
            "POSITION": 0
          },
          "mode": 4,
          "material": 0
        }
      ]
    }
  ],
  "materials": [
    {
      "pbrMetallicRoughness": {
        "baseColorFactor": [
          0.92,
          0.95,
          1,
          1
        ],
        "metallicFactor": 0.2,
        "roughnessFactor": 0.7
      },
      "doubleSided": true
    }
  ],
  "accessors": [
    {
      "bufferView": 0,
      "componentType": 5126,
      "count": 192,
      "type": "VEC3",
      "min": [
        -1.8,
        0,
        -1.8
      ],
      "max": [
        1.8,
        50,
        1.8
      ]
    }
  ],
  "bufferViews": [
    {
      "buffer": 0,
      "byteOffset": 0,
      "byteLength": 2304,
      "target": 34962
    }
  ],
  "buffers": [
    {
      "byteLength": 2304,
      "uri": "data:application/octet-stream;base64,"
    }
  ]
}
